<svg xmlns="http://www.w3.org/2000/svg" width="46.831" height="47.999" viewBox="0 0 46.831 47.999">
  <g>
    <path d="M39.534,0H12.8A7.3,7.3,0,0,0,5.507,7.3v20.33A6.241,6.241,0,0,0,0,33.814v7.951A6.24,6.24,0,0,0,6.234,48h4.7a6.241,6.241,0,0,0,6.234-6.234v-3.99a5.3,5.3,0,0,0,4.568-5.238V10.263a5.295,5.295,0,0,0-10.59,0V32.536a5.3,5.3,0,0,0,4.568,5.238v3.99a4.785,4.785,0,0,1-4.779,4.779h-4.7a4.785,4.785,0,0,1-4.78-4.779V33.813a4.774,4.774,0,0,1,4.052-4.707v6.4a7.3,7.3,0,0,0,7.3,7.3.728.728,0,1,0,0-1.456A5.847,5.847,0,0,1,6.961,35.5V7.3A5.847,5.847,0,0,1,12.8,1.454H39.534A5.849,5.849,0,0,1,45.377,7.3V35.5a5.848,5.848,0,0,1-5.843,5.842H20.076a.727.727,0,1,0,0,1.454H39.534a7.3,7.3,0,0,0,7.3-7.3V7.3A7.3,7.3,0,0,0,39.534,0ZM12.6,32.537V10.263a3.841,3.841,0,1,1,7.681,0V32.536a3.845,3.845,0,0,1-3.84,3.84h0A3.843,3.843,0,0,1,12.6,32.537Z" fill="#1a171b"/>
    <path d="M41.4,6.666a1.7,1.7,0,0,0-1.7-1.7H27.2a1.7,1.7,0,0,0-1.7,1.7v4.341a1.7,1.7,0,0,0,1.7,1.7H39.7a1.7,1.7,0,0,0,1.7-1.7Zm-1.455,4.341a.242.242,0,0,1-.242.243H27.2a.242.242,0,0,1-.242-.243V6.666a.242.242,0,0,1,.242-.243H39.7a.242.242,0,0,1,.242.243Z" fill="#1a171b"/>
    <path d="M34.664,17.531H32.24a.728.728,0,1,0,0,1.456h2.424a.728.728,0,0,0,0-1.456Z" fill="#1a171b"/>
    <path d="M34.664,23.814H32.24a.728.728,0,1,0,0,1.455h2.424a.728.728,0,1,0,0-1.455Z" fill="#1a171b"/>
    <path d="M34.664,30.1H32.24a.728.728,0,1,0,0,1.455h2.424a.728.728,0,1,0,0-1.455Z" fill="#1a171b"/>
    <path d="M34.664,36.377H32.24a.728.728,0,0,0,0,1.456h2.424a.728.728,0,0,0,0-1.456Z" fill="#1a171b"/>
    <path d="M26.169,18.986h2.424a.728.728,0,0,0,0-1.456H26.169a.728.728,0,0,0,0,1.456Z" fill="#1a171b"/>
    <path d="M26.169,25.268h2.424a.728.728,0,1,0,0-1.455H26.169a.728.728,0,0,0,0,1.455Z" fill="#1a171b"/>
    <path d="M26.169,31.55h2.424a.728.728,0,1,0,0-1.455H26.169a.728.728,0,0,0,0,1.455Z" fill="#1a171b"/>
    <path d="M26.169,37.832h2.424a.728.728,0,0,0,0-1.456H26.169a.728.728,0,0,0,0,1.456Z" fill="#1a171b"/>
    <path d="M40.673,17.531H38.249a.728.728,0,1,0,0,1.456h2.424a.728.728,0,1,0,0-1.456Z" fill="#1a171b"/>
    <path d="M40.673,23.814H38.249a.728.728,0,1,0,0,1.455h2.424a.728.728,0,1,0,0-1.455Z" fill="#1a171b"/>
    <path d="M40.673,30.1H38.249a.728.728,0,1,0,0,1.455h2.424a.728.728,0,1,0,0-1.455Z" fill="#1a171b"/>
    <path d="M40.673,36.377H38.249a.728.728,0,0,0,0,1.456h2.424a.728.728,0,0,0,0-1.456Z" fill="#1a171b"/>
  </g>
</svg>
